<svg xmlns="http://www.w3.org/2000/svg" viewBox="0 0 660 160" style="background-color:transparent">
  <defs>
    <marker id="arr" viewBox="0 0 10 10" refX="8" refY="5" markerWidth="8" markerHeight="8" orient="auto">
      <path d="M 0 0 L 10 5 L 0 10 z" fill="#6B7280"/>
    </marker>
  </defs>

  <!-- Solve -->
  <g transform="translate(30, 15)">
    <rect width="120" height="65" rx="10" fill="#C9E4CA" stroke="#5C8A5E" stroke-width="2"/>
    <text x="60" y="30" text-anchor="middle" font-family="system-ui, sans-serif" font-size="15" font-weight="700" fill="#1a1a2e">Solve</text>
    <text x="60" y="48" text-anchor="middle" font-family="system-ui, sans-serif" font-size="11" fill="#4a5568">fix the problem</text>
  </g>

  <!-- Arrow -->
  <line x1="155" y1="47" x2="185" y2="47" stroke="#6B7280" stroke-width="2" marker-end="url(#arr)"/>

  <!-- Compound -->
  <g transform="translate(190, 15)">
    <rect width="120" height="65" rx="10" fill="#D4A574" stroke="#8B6914" stroke-width="2"/>
    <text x="60" y="30" text-anchor="middle" font-family="system-ui, sans-serif" font-size="15" font-weight="700" fill="#1a1a2e">Compound</text>
    <text x="60" y="48" text-anchor="middle" font-family="system-ui, sans-serif" font-size="11" fill="#4a5568">ops/solutions/</text>
  </g>

  <!-- Arrow -->
  <line x1="315" y1="47" x2="345" y2="47" stroke="#6B7280" stroke-width="2" marker-end="url(#arr)"/>

  <!-- Search -->
  <g transform="translate(350, 15)">
    <rect width="120" height="65" rx="10" fill="#B8D4E3" stroke="#4A7C9B" stroke-width="2"/>
    <text x="60" y="30" text-anchor="middle" font-family="system-ui, sans-serif" font-size="15" font-weight="700" fill="#1a1a2e">Search</text>
    <text x="60" y="48" text-anchor="middle" font-family="system-ui, sans-serif" font-size="11" fill="#4a5568">learnings agent</text>
  </g>

  <!-- Arrow -->
  <line x1="475" y1="47" x2="505" y2="47" stroke="#6B7280" stroke-width="2" marker-end="url(#arr)"/>

  <!-- Plan -->
  <g transform="translate(510, 15)">
    <rect width="120" height="65" rx="10" fill="#FFE4B5" stroke="#D4A574" stroke-width="2"/>
    <text x="60" y="30" text-anchor="middle" font-family="system-ui, sans-serif" font-size="15" font-weight="700" fill="#1a1a2e">Plan</text>
    <text x="60" y="48" text-anchor="middle" font-family="system-ui, sans-serif" font-size="11" fill="#4a5568">informed by past</text>
  </g>

  <!-- Dashed loop back from Plan to Solve -->
  <path d="M 630,80 Q 650,80 650,110 Q 650,135 330,135 Q 10,135 10,110 Q 10,80 30,80" fill="none" stroke="#6B7280" stroke-width="1.5" stroke-dasharray="6,4" opacity="0.5"/>
  <polygon points="28,76 30,83 34,76" fill="#6B7280" opacity="0.5" transform="rotate(180, 31, 80)"/>

  <rect x="285" y="127" width="90" height="20" rx="10" fill="#f8f8f8" stroke="#ddd" stroke-width="1"/>
  <text x="330" y="141" text-anchor="middle" font-family="system-ui, sans-serif" font-size="10" fill="#6B7280" font-style="italic">next sprint</text>
</svg>