<svg xmlns="http://www.w3.org/2000/svg" viewBox="0 0 1100 200">
  <defs>
    <linearGradient id="bg2" x1="0%" y1="0%" x2="100%" y2="100%">
      <stop offset="0%" style="stop-color:#0f172a"/>
      <stop offset="100%" style="stop-color:#1e1b4b"/>
    </linearGradient>
  </defs>

  <rect width="1100" height="200" fill="url(#bg2)" rx="12"/>

  <!-- Phase boxes -->
  <!-- Phase 0 -->
  <g transform="translate(30, 60)">
    <rect width="100" height="80" rx="8" fill="#10b981" opacity="0.2" stroke="#10b981" stroke-width="1.5"/>
    <text x="50" y="30" text-anchor="middle" font-family="system-ui, sans-serif" font-size="10" font-weight="600" fill="#6ee7b7">PHASE 0</text>
    <text x="50" y="50" text-anchor="middle" font-family="system-ui, sans-serif" font-size="12" font-weight="700" fill="#a7f3d0">Analyze</text>
    <text x="50" y="68" text-anchor="middle" font-family="system-ui, sans-serif" font-size="9" fill="#64748b">Gemini CLI</text>
  </g>

  <!-- Arrow -->
  <g transform="translate(138, 95)">
    <line x1="0" y1="0" x2="20" y2="0" stroke="#475569" stroke-width="1.5"/>
    <polygon points="20,-4 28,0 20,4" fill="#475569"/>
  </g>

  <!-- Pre-Plan -->
  <g transform="translate(170, 60)">
    <rect width="100" height="80" rx="8" fill="#6366f1" opacity="0.2" stroke="#6366f1" stroke-width="1.5"/>
    <text x="50" y="30" text-anchor="middle" font-family="system-ui, sans-serif" font-size="10" font-weight="600" fill="#a5b4fc">PRE-PLAN</text>
    <text x="50" y="50" text-anchor="middle" font-family="system-ui, sans-serif" font-size="12" font-weight="700" fill="#c7d2fe">Research</text>
    <text x="50" y="68" text-anchor="middle" font-family="system-ui, sans-serif" font-size="9" fill="#64748b">learnings agent</text>
  </g>

  <g transform="translate(278, 95)">
    <line x1="0" y1="0" x2="20" y2="0" stroke="#475569" stroke-width="1.5"/>
    <polygon points="20,-4 28,0 20,4" fill="#475569"/>
  </g>

  <!-- Phase 1 -->
  <g transform="translate(310, 60)">
    <rect width="100" height="80" rx="8" fill="#6366f1" opacity="0.2" stroke="#6366f1" stroke-width="1.5"/>
    <text x="50" y="30" text-anchor="middle" font-family="system-ui, sans-serif" font-size="10" font-weight="600" fill="#a5b4fc">PHASE 1</text>
    <text x="50" y="50" text-anchor="middle" font-family="system-ui, sans-serif" font-size="12" font-weight="700" fill="#c7d2fe">Plan</text>
    <text x="50" y="68" text-anchor="middle" font-family="system-ui, sans-serif" font-size="9" fill="#64748b">shadow paths</text>
  </g>

  <g transform="translate(418, 95)">
    <line x1="0" y1="0" x2="20" y2="0" stroke="#475569" stroke-width="1.5"/>
    <polygon points="20,-4 28,0 20,4" fill="#475569"/>
  </g>

  <!-- Phase 1.5 -->
  <g transform="translate(450, 60)">
    <rect width="100" height="80" rx="8" fill="#8b5cf6" opacity="0.2" stroke="#8b5cf6" stroke-width="1.5"/>
    <text x="50" y="30" text-anchor="middle" font-family="system-ui, sans-serif" font-size="10" font-weight="600" fill="#c4b5fd">PHASE 1.5</text>
    <text x="50" y="50" text-anchor="middle" font-family="system-ui, sans-serif" font-size="12" font-weight="700" fill="#ddd6fe">Validate</text>
    <text x="50" y="68" text-anchor="middle" font-family="system-ui, sans-serif" font-size="9" fill="#64748b">plan-checker</text>
  </g>

  <g transform="translate(558, 95)">
    <line x1="0" y1="0" x2="20" y2="0" stroke="#475569" stroke-width="1.5"/>
    <polygon points="20,-4 28,0 20,4" fill="#475569"/>
  </g>

  <!-- Phase 2 -->
  <g transform="translate(590, 60)">
    <rect width="100" height="80" rx="8" fill="#6366f1" opacity="0.2" stroke="#6366f1" stroke-width="1.5"/>
    <text x="50" y="30" text-anchor="middle" font-family="system-ui, sans-serif" font-size="10" font-weight="600" fill="#a5b4fc">PHASE 2</text>
    <text x="50" y="50" text-anchor="middle" font-family="system-ui, sans-serif" font-size="12" font-weight="700" fill="#c7d2fe">Build</text>
    <text x="50" y="68" text-anchor="middle" font-family="system-ui, sans-serif" font-size="9" fill="#64748b">waves / teams</text>
  </g>

  <g transform="translate(698, 95)">
    <line x1="0" y1="0" x2="20" y2="0" stroke="#475569" stroke-width="1.5"/>
    <polygon points="20,-4 28,0 20,4" fill="#475569"/>
  </g>

  <!-- Phase 3-4 -->
  <g transform="translate(730, 60)">
    <rect width="100" height="80" rx="8" fill="#f59e0b" opacity="0.2" stroke="#f59e0b" stroke-width="1.5"/>
    <text x="50" y="30" text-anchor="middle" font-family="system-ui, sans-serif" font-size="10" font-weight="600" fill="#fcd34d">PHASE 3–4</text>
    <text x="50" y="50" text-anchor="middle" font-family="system-ui, sans-serif" font-size="12" font-weight="700" fill="#fde68a">Review</text>
    <text x="50" y="68" text-anchor="middle" font-family="system-ui, sans-serif" font-size="9" fill="#64748b">8 reviewers</text>
  </g>

  <!-- Loop arrow back -->
  <g opacity="0.5">
    <path d="M 780,145 Q 780,170 730,170 Q 680,170 680,145" fill="none" stroke="#f59e0b" stroke-width="1" stroke-dasharray="4,3"/>
    <polygon points="678,145 680,138 684,145" fill="#f59e0b"/>
    <text x="730" y="185" text-anchor="middle" font-family="system-ui, sans-serif" font-size="8" fill="#f59e0b">max 3x</text>
  </g>

  <g transform="translate(838, 95)">
    <line x1="0" y1="0" x2="20" y2="0" stroke="#475569" stroke-width="1.5"/>
    <polygon points="20,-4 28,0 20,4" fill="#475569"/>
  </g>

  <!-- Phase 5 -->
  <g transform="translate(870, 60)">
    <rect width="90" height="80" rx="8" fill="#f59e0b" opacity="0.2" stroke="#f59e0b" stroke-width="1.5"/>
    <text x="45" y="30" text-anchor="middle" font-family="system-ui, sans-serif" font-size="10" font-weight="600" fill="#fcd34d">PHASE 5</text>
    <text x="45" y="50" text-anchor="middle" font-family="system-ui, sans-serif" font-size="12" font-weight="700" fill="#fde68a">Test</text>
    <text x="45" y="68" text-anchor="middle" font-family="system-ui, sans-serif" font-size="9" fill="#64748b">Codex TDD</text>
  </g>

  <g transform="translate(968, 95)">
    <line x1="0" y1="0" x2="20" y2="0" stroke="#475569" stroke-width="1.5"/>
    <polygon points="20,-4 28,0 20,4" fill="#475569"/>
  </g>

  <!-- Phase 6 -->
  <g transform="translate(1000, 60)">
    <rect width="80" height="80" rx="8" fill="#10b981" opacity="0.2" stroke="#10b981" stroke-width="1.5"/>
    <text x="40" y="30" text-anchor="middle" font-family="system-ui, sans-serif" font-size="10" font-weight="600" fill="#6ee7b7">PHASE 6</text>
    <text x="40" y="50" text-anchor="middle" font-family="system-ui, sans-serif" font-size="12" font-weight="700" fill="#a7f3d0">Ship</text>
    <text x="40" y="68" text-anchor="middle" font-family="system-ui, sans-serif" font-size="9" fill="#64748b">compound</text>
  </g>

  <!-- Label -->
  <text x="550" y="25" text-anchor="middle" font-family="system-ui, sans-serif" font-size="13" font-weight="600" fill="#94a3b8">Sprint Lifecycle</text>
</svg>
